<mxfile host="app.diagrams.net" modified="2021-09-30T02:07:39.321Z" agent="5.0 (Windows NT 10.0; Win64; x64) AppleWebKit/537.36 (KHTML, like Gecko) Chrome/92.0.4515.159 Safari/537.36" etag="2zVPAH3pnGSd7Vj4-aFU" version="15.3.1" type="github">
  <diagram id="oS3NIKPzrpNPTEWcU2Wd" name="第 1 页">
    <mxGraphModel dx="713" dy="392" grid="1" gridSize="10" guides="1" tooltips="1" connect="1" arrows="1" fold="1" page="1" pageScale="1" pageWidth="827" pageHeight="1169" math="0" shadow="0">
      <root>
        <mxCell id="0" />
        <mxCell id="1" parent="0" />
        <mxCell id="C_DTC8ixVh_991XyuoP6-37" value="" style="group" vertex="1" connectable="0" parent="1">
          <mxGeometry x="40" y="280" width="680.0000000000002" height="30" as="geometry" />
        </mxCell>
        <mxCell id="C_DTC8ixVh_991XyuoP6-1" value="0" style="rounded=0;whiteSpace=wrap;html=1;" vertex="1" parent="C_DTC8ixVh_991XyuoP6-37">
          <mxGeometry width="21.250000000000007" height="30" as="geometry" />
        </mxCell>
        <mxCell id="C_DTC8ixVh_991XyuoP6-2" value="0" style="rounded=0;whiteSpace=wrap;html=1;" vertex="1" parent="C_DTC8ixVh_991XyuoP6-37">
          <mxGeometry x="21.250000000000007" width="21.250000000000007" height="30" as="geometry" />
        </mxCell>
        <mxCell id="C_DTC8ixVh_991XyuoP6-4" value="0" style="rounded=0;whiteSpace=wrap;html=1;" vertex="1" parent="C_DTC8ixVh_991XyuoP6-37">
          <mxGeometry x="42.500000000000014" width="21.250000000000007" height="30" as="geometry" />
        </mxCell>
        <mxCell id="C_DTC8ixVh_991XyuoP6-5" value="0" style="rounded=0;whiteSpace=wrap;html=1;" vertex="1" parent="C_DTC8ixVh_991XyuoP6-37">
          <mxGeometry x="63.75000000000003" width="21.250000000000007" height="30" as="geometry" />
        </mxCell>
        <mxCell id="C_DTC8ixVh_991XyuoP6-6" value="0" style="rounded=0;whiteSpace=wrap;html=1;" vertex="1" parent="C_DTC8ixVh_991XyuoP6-37">
          <mxGeometry x="85.00000000000003" width="21.250000000000007" height="30" as="geometry" />
        </mxCell>
        <mxCell id="C_DTC8ixVh_991XyuoP6-7" value="1" style="rounded=0;whiteSpace=wrap;html=1;fillColor=#66FFB3;" vertex="1" parent="C_DTC8ixVh_991XyuoP6-37">
          <mxGeometry x="106.25" width="21.250000000000007" height="30" as="geometry" />
        </mxCell>
        <mxCell id="C_DTC8ixVh_991XyuoP6-8" value="0" style="rounded=0;whiteSpace=wrap;html=1;" vertex="1" parent="C_DTC8ixVh_991XyuoP6-37">
          <mxGeometry x="127.50000000000006" width="21.250000000000007" height="30" as="geometry" />
        </mxCell>
        <mxCell id="C_DTC8ixVh_991XyuoP6-9" value="0" style="rounded=0;whiteSpace=wrap;html=1;" vertex="1" parent="C_DTC8ixVh_991XyuoP6-37">
          <mxGeometry x="148.75000000000006" width="21.250000000000007" height="30" as="geometry" />
        </mxCell>
        <mxCell id="C_DTC8ixVh_991XyuoP6-10" value="0" style="rounded=0;whiteSpace=wrap;html=1;" vertex="1" parent="C_DTC8ixVh_991XyuoP6-37">
          <mxGeometry x="170.00000000000006" width="21.250000000000007" height="30" as="geometry" />
        </mxCell>
        <mxCell id="C_DTC8ixVh_991XyuoP6-11" value="1" style="rounded=0;whiteSpace=wrap;html=1;fillColor=#66FFB3;" vertex="1" parent="C_DTC8ixVh_991XyuoP6-37">
          <mxGeometry x="191.25000000000003" width="21.250000000000007" height="30" as="geometry" />
        </mxCell>
        <mxCell id="C_DTC8ixVh_991XyuoP6-12" value="0" style="rounded=0;whiteSpace=wrap;html=1;" vertex="1" parent="C_DTC8ixVh_991XyuoP6-37">
          <mxGeometry x="212.50000000000003" width="21.250000000000007" height="30" as="geometry" />
        </mxCell>
        <mxCell id="C_DTC8ixVh_991XyuoP6-13" value="0" style="rounded=0;whiteSpace=wrap;html=1;" vertex="1" parent="C_DTC8ixVh_991XyuoP6-37">
          <mxGeometry x="233.7500000000001" width="21.250000000000007" height="30" as="geometry" />
        </mxCell>
        <mxCell id="C_DTC8ixVh_991XyuoP6-14" value="0" style="rounded=0;whiteSpace=wrap;html=1;" vertex="1" parent="C_DTC8ixVh_991XyuoP6-37">
          <mxGeometry x="255.0000000000001" width="21.250000000000007" height="30" as="geometry" />
        </mxCell>
        <mxCell id="C_DTC8ixVh_991XyuoP6-15" value="1" style="rounded=0;whiteSpace=wrap;html=1;fillColor=#66FFB3;" vertex="1" parent="C_DTC8ixVh_991XyuoP6-37">
          <mxGeometry x="276.2500000000001" width="21.250000000000007" height="30" as="geometry" />
        </mxCell>
        <mxCell id="C_DTC8ixVh_991XyuoP6-16" value="0" style="rounded=0;whiteSpace=wrap;html=1;" vertex="1" parent="C_DTC8ixVh_991XyuoP6-37">
          <mxGeometry x="297.5000000000001" width="21.250000000000007" height="30" as="geometry" />
        </mxCell>
        <mxCell id="C_DTC8ixVh_991XyuoP6-17" value="0" style="rounded=0;whiteSpace=wrap;html=1;" vertex="1" parent="C_DTC8ixVh_991XyuoP6-37">
          <mxGeometry x="318.7500000000001" width="21.250000000000007" height="30" as="geometry" />
        </mxCell>
        <mxCell id="C_DTC8ixVh_991XyuoP6-18" value="0" style="rounded=0;whiteSpace=wrap;html=1;" vertex="1" parent="C_DTC8ixVh_991XyuoP6-37">
          <mxGeometry x="340.0000000000001" width="21.250000000000007" height="30" as="geometry" />
        </mxCell>
        <mxCell id="C_DTC8ixVh_991XyuoP6-19" value="0" style="rounded=0;whiteSpace=wrap;html=1;" vertex="1" parent="C_DTC8ixVh_991XyuoP6-37">
          <mxGeometry x="361.25000000000006" width="21.250000000000007" height="30" as="geometry" />
        </mxCell>
        <mxCell id="C_DTC8ixVh_991XyuoP6-20" value="0" style="rounded=0;whiteSpace=wrap;html=1;" vertex="1" parent="C_DTC8ixVh_991XyuoP6-37">
          <mxGeometry x="382.50000000000006" width="21.250000000000007" height="30" as="geometry" />
        </mxCell>
        <mxCell id="C_DTC8ixVh_991XyuoP6-21" value="1" style="rounded=0;whiteSpace=wrap;html=1;fillColor=#66FFB3;" vertex="1" parent="C_DTC8ixVh_991XyuoP6-37">
          <mxGeometry x="403.75000000000006" width="21.250000000000007" height="30" as="geometry" />
        </mxCell>
        <mxCell id="C_DTC8ixVh_991XyuoP6-22" value="0" style="rounded=0;whiteSpace=wrap;html=1;" vertex="1" parent="C_DTC8ixVh_991XyuoP6-37">
          <mxGeometry x="425.00000000000006" width="21.250000000000007" height="30" as="geometry" />
        </mxCell>
        <mxCell id="C_DTC8ixVh_991XyuoP6-23" value="0" style="rounded=0;whiteSpace=wrap;html=1;" vertex="1" parent="C_DTC8ixVh_991XyuoP6-37">
          <mxGeometry x="446.2500000000001" width="21.250000000000007" height="30" as="geometry" />
        </mxCell>
        <mxCell id="C_DTC8ixVh_991XyuoP6-24" value="1" style="rounded=0;whiteSpace=wrap;html=1;fillColor=#66FFB3;" vertex="1" parent="C_DTC8ixVh_991XyuoP6-37">
          <mxGeometry x="467.5000000000002" width="21.250000000000007" height="30" as="geometry" />
        </mxCell>
        <mxCell id="C_DTC8ixVh_991XyuoP6-25" value="0" style="rounded=0;whiteSpace=wrap;html=1;" vertex="1" parent="C_DTC8ixVh_991XyuoP6-37">
          <mxGeometry x="488.7500000000002" width="21.250000000000007" height="30" as="geometry" />
        </mxCell>
        <mxCell id="C_DTC8ixVh_991XyuoP6-26" value="0" style="rounded=0;whiteSpace=wrap;html=1;" vertex="1" parent="C_DTC8ixVh_991XyuoP6-37">
          <mxGeometry x="510.0000000000002" width="21.250000000000007" height="30" as="geometry" />
        </mxCell>
        <mxCell id="C_DTC8ixVh_991XyuoP6-27" value="0" style="rounded=0;whiteSpace=wrap;html=1;" vertex="1" parent="C_DTC8ixVh_991XyuoP6-37">
          <mxGeometry x="531.2500000000002" width="21.250000000000007" height="30" as="geometry" />
        </mxCell>
        <mxCell id="C_DTC8ixVh_991XyuoP6-28" value="0" style="rounded=0;whiteSpace=wrap;html=1;" vertex="1" parent="C_DTC8ixVh_991XyuoP6-37">
          <mxGeometry x="552.5000000000002" width="21.250000000000007" height="30" as="geometry" />
        </mxCell>
        <mxCell id="C_DTC8ixVh_991XyuoP6-29" value="0" style="rounded=0;whiteSpace=wrap;html=1;" vertex="1" parent="C_DTC8ixVh_991XyuoP6-37">
          <mxGeometry x="573.7500000000002" width="21.250000000000007" height="30" as="geometry" />
        </mxCell>
        <mxCell id="C_DTC8ixVh_991XyuoP6-30" value="0" style="rounded=0;whiteSpace=wrap;html=1;" vertex="1" parent="C_DTC8ixVh_991XyuoP6-37">
          <mxGeometry x="595.0000000000002" width="21.250000000000007" height="30" as="geometry" />
        </mxCell>
        <mxCell id="C_DTC8ixVh_991XyuoP6-31" value="0" style="rounded=0;whiteSpace=wrap;html=1;" vertex="1" parent="C_DTC8ixVh_991XyuoP6-37">
          <mxGeometry x="616.2500000000002" width="21.250000000000007" height="30" as="geometry" />
        </mxCell>
        <mxCell id="C_DTC8ixVh_991XyuoP6-32" value="0" style="rounded=0;whiteSpace=wrap;html=1;" vertex="1" parent="C_DTC8ixVh_991XyuoP6-37">
          <mxGeometry x="637.5000000000002" width="21.250000000000007" height="30" as="geometry" />
        </mxCell>
        <mxCell id="C_DTC8ixVh_991XyuoP6-33" value="0" style="rounded=0;whiteSpace=wrap;html=1;" vertex="1" parent="C_DTC8ixVh_991XyuoP6-37">
          <mxGeometry x="658.7500000000002" width="21.250000000000007" height="30" as="geometry" />
        </mxCell>
        <mxCell id="C_DTC8ixVh_991XyuoP6-39" style="edgeStyle=orthogonalEdgeStyle;rounded=0;orthogonalLoop=1;jettySize=auto;html=1;exitX=0.5;exitY=1;exitDx=0;exitDy=0;entryX=0.5;entryY=0;entryDx=0;entryDy=0;curved=1;" edge="1" parent="1" source="C_DTC8ixVh_991XyuoP6-38" target="C_DTC8ixVh_991XyuoP6-7">
          <mxGeometry relative="1" as="geometry">
            <Array as="points">
              <mxPoint x="157" y="180" />
            </Array>
          </mxGeometry>
        </mxCell>
        <mxCell id="C_DTC8ixVh_991XyuoP6-42" value="f" style="edgeLabel;html=1;align=center;verticalAlign=middle;resizable=0;points=[];" vertex="1" connectable="0" parent="C_DTC8ixVh_991XyuoP6-39">
          <mxGeometry x="0.3322" y="9" relative="1" as="geometry">
            <mxPoint as="offset" />
          </mxGeometry>
        </mxCell>
        <mxCell id="C_DTC8ixVh_991XyuoP6-40" style="edgeStyle=orthogonalEdgeStyle;curved=1;rounded=0;orthogonalLoop=1;jettySize=auto;html=1;exitX=0.5;exitY=1;exitDx=0;exitDy=0;entryX=0.5;entryY=0;entryDx=0;entryDy=0;" edge="1" parent="1" source="C_DTC8ixVh_991XyuoP6-38" target="C_DTC8ixVh_991XyuoP6-11">
          <mxGeometry relative="1" as="geometry">
            <Array as="points">
              <mxPoint x="242" y="230" />
              <mxPoint x="242" y="230" />
            </Array>
          </mxGeometry>
        </mxCell>
        <mxCell id="C_DTC8ixVh_991XyuoP6-43" value="g" style="edgeLabel;html=1;align=center;verticalAlign=middle;resizable=0;points=[];" vertex="1" connectable="0" parent="C_DTC8ixVh_991XyuoP6-40">
          <mxGeometry x="-0.2239" y="-1" relative="1" as="geometry">
            <mxPoint as="offset" />
          </mxGeometry>
        </mxCell>
        <mxCell id="C_DTC8ixVh_991XyuoP6-41" style="edgeStyle=orthogonalEdgeStyle;curved=1;rounded=0;orthogonalLoop=1;jettySize=auto;html=1;exitX=0.5;exitY=1;exitDx=0;exitDy=0;entryX=0.5;entryY=0;entryDx=0;entryDy=0;" edge="1" parent="1" source="C_DTC8ixVh_991XyuoP6-38" target="C_DTC8ixVh_991XyuoP6-15">
          <mxGeometry relative="1" as="geometry">
            <Array as="points">
              <mxPoint x="327" y="180" />
            </Array>
          </mxGeometry>
        </mxCell>
        <mxCell id="C_DTC8ixVh_991XyuoP6-44" value="h" style="edgeLabel;html=1;align=center;verticalAlign=middle;resizable=0;points=[];" vertex="1" connectable="0" parent="C_DTC8ixVh_991XyuoP6-41">
          <mxGeometry x="0.32" y="-12" relative="1" as="geometry">
            <mxPoint as="offset" />
          </mxGeometry>
        </mxCell>
        <mxCell id="C_DTC8ixVh_991XyuoP6-38" value="key1" style="ellipse;whiteSpace=wrap;html=1;" vertex="1" parent="1">
          <mxGeometry x="216.37" y="160" width="51" height="20" as="geometry" />
        </mxCell>
        <mxCell id="C_DTC8ixVh_991XyuoP6-49" style="edgeStyle=orthogonalEdgeStyle;curved=1;rounded=0;orthogonalLoop=1;jettySize=auto;html=1;exitX=0.5;exitY=1;exitDx=0;exitDy=0;entryX=0.5;entryY=0;entryDx=0;entryDy=0;" edge="1" parent="1" source="C_DTC8ixVh_991XyuoP6-45" target="C_DTC8ixVh_991XyuoP6-15">
          <mxGeometry relative="1" as="geometry">
            <Array as="points">
              <mxPoint x="327" y="180" />
            </Array>
          </mxGeometry>
        </mxCell>
        <mxCell id="C_DTC8ixVh_991XyuoP6-52" value="f" style="edgeLabel;html=1;align=center;verticalAlign=middle;resizable=0;points=[];" vertex="1" connectable="0" parent="C_DTC8ixVh_991XyuoP6-49">
          <mxGeometry x="-0.3639" y="14" relative="1" as="geometry">
            <mxPoint as="offset" />
          </mxGeometry>
        </mxCell>
        <mxCell id="C_DTC8ixVh_991XyuoP6-51" style="edgeStyle=orthogonalEdgeStyle;curved=1;rounded=0;orthogonalLoop=1;jettySize=auto;html=1;exitX=0.5;exitY=1;exitDx=0;exitDy=0;entryX=0.5;entryY=0;entryDx=0;entryDy=0;" edge="1" parent="1" source="C_DTC8ixVh_991XyuoP6-45" target="C_DTC8ixVh_991XyuoP6-21">
          <mxGeometry relative="1" as="geometry">
            <Array as="points">
              <mxPoint x="454" y="180" />
            </Array>
          </mxGeometry>
        </mxCell>
        <mxCell id="C_DTC8ixVh_991XyuoP6-53" value="g" style="edgeLabel;html=1;align=center;verticalAlign=middle;resizable=0;points=[];" vertex="1" connectable="0" parent="C_DTC8ixVh_991XyuoP6-51">
          <mxGeometry x="0.1072" y="-3" relative="1" as="geometry">
            <mxPoint as="offset" />
          </mxGeometry>
        </mxCell>
        <mxCell id="C_DTC8ixVh_991XyuoP6-54" style="edgeStyle=orthogonalEdgeStyle;curved=1;rounded=0;orthogonalLoop=1;jettySize=auto;html=1;exitX=0.5;exitY=1;exitDx=0;exitDy=0;entryX=0.5;entryY=0;entryDx=0;entryDy=0;" edge="1" parent="1" source="C_DTC8ixVh_991XyuoP6-45" target="C_DTC8ixVh_991XyuoP6-24">
          <mxGeometry relative="1" as="geometry">
            <Array as="points">
              <mxPoint x="518" y="180" />
            </Array>
          </mxGeometry>
        </mxCell>
        <mxCell id="C_DTC8ixVh_991XyuoP6-55" value="h" style="edgeLabel;html=1;align=center;verticalAlign=middle;resizable=0;points=[];" vertex="1" connectable="0" parent="C_DTC8ixVh_991XyuoP6-54">
          <mxGeometry x="0.3369" y="-13" relative="1" as="geometry">
            <mxPoint as="offset" />
          </mxGeometry>
        </mxCell>
        <mxCell id="C_DTC8ixVh_991XyuoP6-45" value="key2" style="ellipse;whiteSpace=wrap;html=1;" vertex="1" parent="1">
          <mxGeometry x="400" y="160" width="51" height="20" as="geometry" />
        </mxCell>
      </root>
    </mxGraphModel>
  </diagram>
</mxfile>
